<mxfile host="app.diagrams.net" modified="2024-07-07T14:38:57.737Z" agent="Mozilla/5.0 (Macintosh; Intel Mac OS X 10_15_7) AppleWebKit/537.36 (KHTML, like Gecko) Chrome/126.0.0.0 Safari/537.36" etag="ICM81pbuF1MdxBX-su7i" version="24.6.4" type="device">
  <diagram name="Seite-1" id="wMpWkGMl6ey_oWlw5WE9">
    <mxGraphModel dx="2461" dy="683" grid="1" gridSize="10" guides="1" tooltips="1" connect="1" arrows="1" fold="1" page="1" pageScale="1" pageWidth="1169" pageHeight="827" background="#ffffff" math="0" shadow="0">
      <root>
        <mxCell id="0" />
        <mxCell id="1" parent="0" />
        <mxCell id="Un4krBqXsEn8p7unEbFb-7" value="" style="edgeStyle=orthogonalEdgeStyle;rounded=0;orthogonalLoop=1;jettySize=auto;html=1;" edge="1" parent="1" source="EfqctRZrHFUYg00bFSVy-15" target="EfqctRZrHFUYg00bFSVy-16">
          <mxGeometry relative="1" as="geometry" />
        </mxCell>
        <mxCell id="EfqctRZrHFUYg00bFSVy-15" value="" style="rounded=0;whiteSpace=wrap;html=1;fillColor=none;" parent="1" vertex="1">
          <mxGeometry x="-20" y="170" width="200" height="192.5" as="geometry" />
        </mxCell>
        <mxCell id="EfqctRZrHFUYg00bFSVy-13" value="" style="rounded=0;whiteSpace=wrap;html=1;fillColor=none;" parent="1" vertex="1">
          <mxGeometry x="585" y="170" width="200" height="192.5" as="geometry" />
        </mxCell>
        <mxCell id="EfqctRZrHFUYg00bFSVy-4" value="" style="sketch=0;outlineConnect=0;fontColor=#232F3E;gradientColor=none;fillColor=#232F3D;strokeColor=none;dashed=0;verticalLabelPosition=bottom;verticalAlign=top;align=center;html=1;fontSize=12;fontStyle=0;aspect=fixed;pointerEvents=1;shape=mxgraph.aws4.git_repository;" parent="1" vertex="1">
          <mxGeometry x="642.4100000000001" y="442.5" width="60" height="78" as="geometry" />
        </mxCell>
        <mxCell id="EfqctRZrHFUYg00bFSVy-6" value="devices" style="sketch=0;outlineConnect=0;gradientColor=none;fontColor=#545B64;strokeColor=none;fillColor=#879196;dashed=0;verticalLabelPosition=bottom;verticalAlign=top;align=center;html=1;fontSize=12;fontStyle=0;aspect=fixed;shape=mxgraph.aws4.illustration_devices;pointerEvents=1" parent="1" vertex="1">
          <mxGeometry x="30" y="440" width="100" height="73" as="geometry" />
        </mxCell>
        <mxCell id="EfqctRZrHFUYg00bFSVy-7" value="users" style="sketch=0;outlineConnect=0;gradientColor=none;fontColor=#545B64;strokeColor=none;fillColor=#879196;dashed=0;verticalLabelPosition=bottom;verticalAlign=top;align=center;html=1;fontSize=12;fontStyle=0;aspect=fixed;shape=mxgraph.aws4.illustration_users;pointerEvents=1" parent="1" vertex="1">
          <mxGeometry x="30" y="220" width="100" height="100" as="geometry" />
        </mxCell>
        <mxCell id="EfqctRZrHFUYg00bFSVy-8" value="AWS Cloud" style="points=[[0,0],[0.25,0],[0.5,0],[0.75,0],[1,0],[1,0.25],[1,0.5],[1,0.75],[1,1],[0.75,1],[0.5,1],[0.25,1],[0,1],[0,0.75],[0,0.5],[0,0.25]];outlineConnect=0;gradientColor=none;html=1;whiteSpace=wrap;fontSize=12;fontStyle=0;container=1;pointerEvents=0;collapsible=0;recursiveResize=0;shape=mxgraph.aws4.group;grIcon=mxgraph.aws4.group_aws_cloud_alt;strokeColor=#232F3E;fillColor=none;verticalAlign=top;align=left;spacingLeft=30;fontColor=#232F3E;dashed=0;" parent="1" vertex="1">
          <mxGeometry x="195" y="170" width="365" height="460" as="geometry" />
        </mxCell>
        <mxCell id="EfqctRZrHFUYg00bFSVy-9" value="eu-central-1" style="points=[[0,0],[0.25,0],[0.5,0],[0.75,0],[1,0],[1,0.25],[1,0.5],[1,0.75],[1,1],[0.75,1],[0.5,1],[0.25,1],[0,1],[0,0.75],[0,0.5],[0,0.25]];outlineConnect=0;gradientColor=none;html=1;whiteSpace=wrap;fontSize=12;fontStyle=0;container=1;pointerEvents=0;collapsible=0;recursiveResize=0;shape=mxgraph.aws4.group;grIcon=mxgraph.aws4.group_region;strokeColor=#00A4A6;fillColor=none;verticalAlign=top;align=left;spacingLeft=30;fontColor=#147EBA;dashed=1;" parent="EfqctRZrHFUYg00bFSVy-8" vertex="1">
          <mxGeometry x="30" y="49" width="300" height="351" as="geometry" />
        </mxCell>
        <mxCell id="Un4krBqXsEn8p7unEbFb-3" style="edgeStyle=orthogonalEdgeStyle;rounded=0;orthogonalLoop=1;jettySize=auto;html=1;startArrow=classic;startFill=1;" edge="1" parent="EfqctRZrHFUYg00bFSVy-9" source="EfqctRZrHFUYg00bFSVy-1" target="EfqctRZrHFUYg00bFSVy-2">
          <mxGeometry relative="1" as="geometry">
            <Array as="points">
              <mxPoint x="155" y="81" />
            </Array>
          </mxGeometry>
        </mxCell>
        <mxCell id="EfqctRZrHFUYg00bFSVy-1" value="Amazon EC2" style="sketch=0;outlineConnect=0;fontColor=#232F3E;gradientColor=none;strokeColor=#ffffff;fillColor=#232F3E;dashed=0;verticalLabelPosition=middle;verticalAlign=bottom;align=center;html=1;whiteSpace=wrap;fontSize=10;fontStyle=1;spacing=3;shape=mxgraph.aws4.productIcon;prIcon=mxgraph.aws4.ec2;" parent="EfqctRZrHFUYg00bFSVy-9" vertex="1">
          <mxGeometry x="115" y="181" width="80" height="100" as="geometry" />
        </mxCell>
        <mxCell id="EfqctRZrHFUYg00bFSVy-24" value="" style="edgeStyle=orthogonalEdgeStyle;rounded=0;orthogonalLoop=1;jettySize=auto;html=1;startArrow=classic;startFill=1;" parent="EfqctRZrHFUYg00bFSVy-9" source="EfqctRZrHFUYg00bFSVy-5" target="EfqctRZrHFUYg00bFSVy-1" edge="1">
          <mxGeometry relative="1" as="geometry">
            <Array as="points">
              <mxPoint x="155" y="81" />
            </Array>
          </mxGeometry>
        </mxCell>
        <mxCell id="EfqctRZrHFUYg00bFSVy-5" value="Amazon S3" style="sketch=0;outlineConnect=0;fontColor=#232F3E;gradientColor=none;strokeColor=#ffffff;fillColor=#232F3E;dashed=0;verticalLabelPosition=middle;verticalAlign=bottom;align=center;html=1;whiteSpace=wrap;fontSize=10;fontStyle=1;spacing=3;shape=mxgraph.aws4.productIcon;prIcon=mxgraph.aws4.s3;" parent="EfqctRZrHFUYg00bFSVy-9" vertex="1">
          <mxGeometry x="25" y="31" width="80" height="100" as="geometry" />
        </mxCell>
        <mxCell id="EfqctRZrHFUYg00bFSVy-2" value="Amazon Rekognition" style="sketch=0;outlineConnect=0;fontColor=#232F3E;gradientColor=none;strokeColor=#ffffff;fillColor=#232F3E;dashed=0;verticalLabelPosition=middle;verticalAlign=bottom;align=center;html=1;whiteSpace=wrap;fontSize=10;fontStyle=1;spacing=3;shape=mxgraph.aws4.productIcon;prIcon=mxgraph.aws4.rekognition;" parent="EfqctRZrHFUYg00bFSVy-9" vertex="1">
          <mxGeometry x="185" y="31" width="80" height="110" as="geometry" />
        </mxCell>
        <mxCell id="Un4krBqXsEn8p7unEbFb-2" value="" style="edgeStyle=orthogonalEdgeStyle;rounded=0;orthogonalLoop=1;jettySize=auto;html=1;startArrow=classic;startFill=1;" edge="1" parent="EfqctRZrHFUYg00bFSVy-9" source="8CVGfBuRibGCuJ_y4K7t-1" target="EfqctRZrHFUYg00bFSVy-1">
          <mxGeometry relative="1" as="geometry" />
        </mxCell>
        <mxCell id="8CVGfBuRibGCuJ_y4K7t-1" value="Elastic IP&#xa;Address" style="sketch=0;outlineConnect=0;fontColor=#232F3E;gradientColor=none;strokeColor=#232F3E;fillColor=#ffffff;dashed=0;verticalLabelPosition=bottom;verticalAlign=top;align=center;html=1;fontSize=12;fontStyle=0;aspect=fixed;shape=mxgraph.aws4.resourceIcon;resIcon=mxgraph.aws4.elastic_ip_address;" parent="EfqctRZrHFUYg00bFSVy-9" vertex="1">
          <mxGeometry x="-15" y="254.75" width="60" height="60" as="geometry" />
        </mxCell>
        <mxCell id="EfqctRZrHFUYg00bFSVy-12" value="" style="shape=image;verticalLabelPosition=bottom;labelBackgroundColor=default;verticalAlign=top;aspect=fixed;imageAspect=0;image=data:image/png,iVBORw0KGgoAAAANSUhEUgAAA0UAAAF9CAYAAADLMcNcAAAACXBIWXMAACE3AAAhNwEzWJ96AAAgAElEQVR4nO3d7XXbxhbu8Wffdb7LtwLxVCCdCsxUYJ0KzFRgpQLTFViuwHAFkSsIVEGkCg5VwTUrmPsBmzGjiABIAvMC/H9raTkxKc6YL+DsmT17LIQgAAAAAJir/5O6AwAAAACQEkERAAAAgFkjKAIAAAAwawRFAAAAAGaNoAgAAADArBEUAQAAAJg1giIAAAAAs0ZQBAAAAGDWCIoAAAAAzBpBEQAAAIBZIygCAAAAMGsERQAAAABmjaAIAAAAwKwRFAEAAACYNYIiAAAAALNGUAQAAABg1giKAAAAAMwaQREAAACAWSMoAgAAADBrBEUAAAAAZo2gCAAAAMCsERQBAAAAmDWCIgAAAACzRlAEAAAAYNYIigAAAADMGkERAAAAgFkjKAIAAAAwawRFAAAAAGaNoAgAAADArBEUAQAAAJg1giIAAAAAs0ZQBAAAAGDWCIoAAAAAzBpBEQAAAIBZIygCAAAAMGsERQAAAABm7V+pO5ADM7uVdJO6H5iEmxDCj9SdAAAAQH8WQkjdh+TMbCPpMnU/MvdN0vvUnSjAryGEKnUnAAAA0N/s0+fM7FoERH2sJT2n7kQBlqk7AAAAgOPMPiiStErdgQI8hRA2ku5Td6QApGECAAAUhqCIQWwfu2CoStmJQlyYGe8pAACAgsw6KCJ1rrd7SQohPIoUuj4IigAAAAoy66BI7P/o49mDoR1S6LoRFAEAABRk7kHRKnUHCvAyCCIo6kYKHQAAQEFmGxSZ2ULSVeJulKDa/58QQi1pm6QnZSEoAgAAKMRsgyIxaO3jZercDqtF3ZapOwAAAIB+5hwUrVJ3oACHgh+Com6XXsgDAAAAmZtlUETqXG/1a38ZQrgXKXR9rFJ3AAAAAN1mGRSJ1Lk+th78HMJqUTfeZwAAAAWYa1C0TN2BAnQFPQRF3UihAwAAKMDsgiIzeyPpXep+FKA16OlYRcJPq9QdAAAAQLvZBUUipamPrtS5ne+j96R8vN8AAAAyR1CE1/RdBWK1qNulF/YAAABApmYVFJE61xtB0bAIxAEAADI2q6BIDE77qvvcKYTwQ6TQ9bFK3QEAAAAcRlCEl757sNMXq0XdrkihAwAAyNfcgqJl6g4U4Nggh6CoHwJyAACATM0mKDKzG0kXqftRgKOCHF9VehqpL1OySt0BAAAAvG42QZGYqe/j2NS5nWrojkzQlRf6AAAAQGYIirDv1FQ4Uuj64T0IAACQoVkERaTO9XZScBNC2IgUuj4IigAAADI0i6BIDEb7eDoxdW6nGqojE/aOFDoAAID8zCUoWqbuQAGqM3+fFLp+CNABAAAyM/mgyMyuJV2m7kcBzgpqSKHrjaAIAAAgM5MPikQp5D6ePKg5Vz3AY0wdKXQAAACZmUNQxMx8tyqzx5m6ZeoOAAAA4KdJB0WkzvU2yH6gEMKjpOchHmviCNQBAAAy8q/UHRjZKnUHCvA8UOrczr2kDwM+3hQRFAFAJGa2kLSI0NRm4O9TTIynz1/7/y5fuctS0g9Jjy/+fv/vHs+sFowDLISQug+jMbONWCnq8iWEcDvUg/nq3J9DPd6E/TeEQMU+ABiZma0lfYzQ1KcQwjpCOyiAmS3VBEDXaoLytwM38aAmUHpUEyi9DKRwpMmuFPnMEAFRt2rIBwshPJrZs3juu9yIMuYAAEyCTwov1Xy/Dx0AvebtfjtmtlVT8KqWdM+q5fGmvKeIFKVuzyPNLDDY78b7EwCAgpnZwszWnpn0p6TPihMQveZC0jvvw//M7NHMbn2RAD1MOShape5AAcYKXuqRHndKLsyMwAgAgMKY2crMakn/U5OamWN2zJV+Bkj3ns6HFpMMijwqvkrcjRJUYzyo75XZjvHYE7NM3QEAANCPB0MbSV+VbkXoFO8k/WFmGzNbpe5MriYZFInUpD7GSp3bIYWuG+9TAAAy9yIYynFVqK9LSV89OGIM8sJUg6JV6g4UoB758QmKul36xkwAAJAZM1tOJBh66VLS72ZWMw75aXJBEalzvY0atJBC19sqdQcAAMBPZvbGzCpJf2hawdBLbyX96cUi3qTuTGqTC4rEPo0+tpHOyGG1qBvL1wAAZMILEmwkvU/bk6g+Spr9qtEUgyIGmd1iBSt1pHZKRgodAAAZMLM7NatDF6n7ksCVmlWj29QdSWVSh7f60t+71P0oQKyg6F5NHi7a3ag5kRoARuGp5atIzdUhhDpSW8DZfPx4r7Iqyo3ls0/W3oYQfqTuTEyTCorEKlEfsVLnFEL4YWbfRaDa5UbSOnUnAEzaQk2KTCx1xLaAk3kAcK9p7x061ntJ12a2nFNgNLX0OYKibrH3+bCvqNsVJ04DABCXB0S1CIhec6WZ7TOaTFBE6lxvdeT2CIr6IaAHACCSvYBojvuH+ppVYDSZoEhUnesrapDiy67fY7ZZqFXqDgAAMAcEREe50EwCoykFRcy0d/ueKDeU1aJupNABADAyAqKT7AKjSZ9lRFA0L6mCkzpRu6XhPQwAwEh88rEWAdEpJh8YTSIoMrMb8QbvI0lQFELYSHpK0XZhCIoAABjBXtltxounu9KEs38mERSJwWQfqVLndqqEbZfi7ZRnYAAASKhSM6jHed76IbeTQ1A0H3Xi9ic7szAw3ssAAAzIzNaiQvGQPniW1qQUHxSROtdb0qCEFLreJneRAQAgFTNbKu7BxXNRTa1AVPFBkSjF3ceTByWpVak7UIB3pNABAHA+/z6tUvdjoi40sef2X6k7MABm1rtVqTvg7iV9Tt2JAtwon9cMAIBSrSVdpu7EAU+SHiVt/M+X+74X/nPtPzn+O96a2W0IYRJ7jIoOirzWfI5vktxksZ8nhLAxs2fxmnUhKAIA4AyeNvchdT9e+K5mTHZ/bPErT1W7UXPYe04FI9Zmdp9JRtJZSk+fW6XuQAFySZ3bySJAyxybQQEAOE+VugN7vkn6dwjhJoRQnVINOISwCSHchRCuJf3HHzMHk0mjKz0oInWuW5W6Ay9UqTtQgilWdQEAIAavNpdDVsp3NcHQasgJ6hDCYwhhJekX5VHE6q2vzBWt2KCI1Lne6tQd2BdCeJT0nLofBSAoAgDgSF5c4TZxN7aS/usrQ5uxGgkh1L5y9GmsNo5Qpe7AuYoNikTqXB/PHoTkhhS6bgRFAAAcb620R7U8SVqGEKKNdUIIazUpddtYbb7i0sxWCds/W8lB0TJ1BwqQa/BRpe5AAS5IoQMAoD8vRpCyuMIuIIo+Ie1tLpU2nW6dsO2zFRkU+Zs+p8obuapSd+A1/sFNOZtRCoIiAAD6WydsexcQHV1EYSgZBEZFrxYVGRSJwWIfuabO7eS6ipUT3ucAAPTgE+bvEzWfPCDa8T6slG7yeZ2o3bOVGhStUnegALkHHbn3LwcXXlAEAAC0WyVqdyvpJoeAaGdvxSiFYleLiguKSJ3rrUrdgTa+AZEUum6r1B0AACBniSvODVpueygeGP2WqPnU1f9OUlxQJFKK+thmnjq3w2pRN97vAAC0u1GainNfYlaZO1YI4U7SQ4Kmr0o8t6jEoGiVugMFyPYD+kIp/UzpkhQ6AABapViZeFYZ+2dWSpOZs0rQ5lmKCop8eZTUuW5FBBuk0PW2St0BAABy5BOHKcaGq5z2ER3iqX13CZq+8XF7MYoKikQqUR/bnJdyX1Gn7kABeN8DAPC6FKtEDyGEOkG7J/HDXZ8jN3uhwsYv/0rdgSMV9eQmUlJAJDX9fZe6E5m7NLPrQvaJJeNFWBb6WXFn9+cxK8xbSbvnefPi57GEWUEA0+YrI2/UXOPeSNpPsX55vdvfT/JDzfVt9+dUrmkpxoYlFhJYS/oauc2VMi/8ta+YoMiX4Bg8dysxKIr9IS3RUj8H67Pn14Ol/1xLejvQQ1/sPdY/HtPMnuWDCUl1STOFXiJ1EaMtn5UsipmtIzW1CSFUx/7SXtB/qph7ExcjbbLe5Fjla2weBN2oud4de617ef+/jaP8mlbvfkp7fs0sRYGFbyVOUoYQKr/OXUZs9q2ZLUp5X1kIIXUfevEv9Ds1OZylDfyBk/jgv5K0CCHMuuCCDwxWagYGOe0t/K5mQHGf84XfzGoNFzy2CiFYjHaGZGaxvgwfQgjLY3/JBzMfB+9NWT6dEnBHfO5O6t9r9q53N4o7iH1S852T9fVsx8wqxT+w9ZeSJsT2+Vg69kT0b14FL3sl7SnazQb8bmZ3pW3eAo7lM60bNTN7Vz5TPCtmtvDP+0bSn5I+KK+ASGpen8+S/mdmj2a24voE4BR+/XjUz+tdzIBIaq6vu+tZVUBZ5dipc0XtJXrJV6ljF7gqZutLSUHRcu+/P0iqKVWMqTKzO0l/6O9pAcVcWM5lZje+svE/pRkYnOpKzSzcxgcUi7TdAVACD4Y2aq4fuUz8vJf0h5nVOQZH3qfYqXNV5PbGEHvV5m0pE4VFBEUHckavJP1pZiVudgNeZWbXPkv44ZWbl5G7E93ewOB3RUr1GsmFmgHF/wiOABzi1/xaTTCU6+TPWzXBUZXZ4Db2ROH2lP2AGaoStFnEpG4RQZHaB4OffRZjEacrwDg8wP9Th2cJJ1toxFeGNsp7YHAqgiMA/7B3zS9lAui9mlXwXAa4y8jtTWI/u+8Ve4rc7DJyeyeZQlAkNReUx4w+qEBvZvbGZwo/97jvpN7jvmeoVrMyNLVg6KX3aq5TrG4DM+bX/Hv1uOZnaLe3O+mqkU8wxU4zLKJYQE+x/y3LyO2dJPug6Ig3fhYfVOAYHuRs1H+mcDlaZyLz4OBR5cySDuFCrG4Ds+Xjk1rlr/y/V7O3O9V4axm5vecSy3C3qCO3d1nCd172QZGOf+PvZmMpwoBs+UzhnZoVkmM2ii7H6VE8L1bGYm+SzQWr28DM+Lhko3wKKZzrSk06XYrx1jJye3Xk9kZFCt3rphgUSU0azp8RD+MDevMvkEPFFLpclbwSujcomNPq0CG71W3S6YCJ21shmtpE0IXSVAOO3d4k9hO9EHvlaxm5vaOVEBSd88b/SJoKcuKB+p86b/9MkaugfmhcrekNCs712Q8gBDBBEw6IdqIGRv58Rl1tCyFMJija29MW+9Db7McuWQdFA73xSVNBcnsFBYY4VX05wGNEtXeK9lQHBed6T2AETFal6aTMHXIhKdae7tiD64fI7Y3mxaHwsWWf6ZJ1UKTh3vgUYUAyHpAPWVBgOdDjRLEXEKHde99nBmAiPD229KIKfV0pTprZMkIb++rI7Y3CM1VeHgofW9arRbkHRcuBH29XhGHoxwX+YW+J+thiCl2yvqjsIyA62gd/zgAUztPJSiy7fY63EfZzx/4OrCO3NyjPVHnUMJkq51qm7kCb3IOiMd74l2pOZl6P8NiApL+WqB81zgzhRQn75Pw5ICA63leqZwKTMNeV348jX8NiXx+LLcXtk2yPyid9c5G6A23mGBTtfDSzxxIGlyjL3hL1mIeRZj1o9i/EyWxMTeCeVF+gXD4YnXOVzWrEx4550PdTCOFHxPYG4ZkqlfLby7tI3YE22QZFPiAY+41/pSadbjVyO5iByEvU2QZF/tmtlNeFuDSXktapOwHgZOvUHUjsaozjBhJsf9hEbu9se8d+xK4u10fWEwXZBkWKN+i7UJOuwswsTpZgiTrboEjNYCCXpfqSfSCNDiiPfx/EXM3I1XqEcVXscVpRqXMeiJ577Meocs7QIij66Z0owoAj7RVTiL1EvYjYVm/++TnlUFq8bq57EoCSrVN3IBMXkoZeLaLIwit8LFKrjMIei9QdOORfqTvQIsWqza4Iw6cQwjpB+yiIBwD3SpMmlutKTJW6Awc8q0mD+KHXZ/6u1VxzFsprhu2tmS1DCHXqjgDotPR9HDldQ1K7NbO7AfflLAZ6nL42kds7mh/7UamclPVrZRps5hwULRO2/dHfZKsQQlFLp4jDz5NJuiJiZosQwiZlH/Z5gYlcBgNPagLW+tiAwtM9lv5zo/T/prUyL2MKQFKzXyLrPRMJXKi5jlYDPd5ioMfpJafv2NfkMBY5QbZbVXJOn0v9pF1JqsfYKIhymdm1F1PI4SK0SN2BHQ8kUn9WniX9JunfIYTrEML6lBWWEMKPEMJ9COE2hLCQ9IvSnmj+lr1FAAo25HfDYsDH6vIUsa2jZDYWOVa232c5B0U5pAddSPpMEQZIf21grJXHe1PK68Jyq3RL98+Sfg0hLEIId0PP7IUQ6hDCUk1w9DzkYx8hdcCJxDzIt1N/1Lx/Y/l0Tl9bftYR/w0pPUn6IulXNa/bvw+8pv/Xb//V75/rIP5qwImdmCv3WZbi9kIetfIZixwr2/F0zulzOXknaWNmN+T2z48HxPfKLy0iiwtL4lWiT5KGzFc/KIRQ+xd7rfhfRjeR2wMQ15OaFLP7vhM7ft2r9//OK3vdqLkmp0793bfSmd8TCSans9o+sXfcxRiHwse0SN2BQ7JcKcq0AtyFmiIMVIOaEd9btlF+AZGUz4UlxSrRVtIvPnsebTbPU+uuJX2P1aa78PcigGl5UHMtux5ipTuEsPHHWUj6r9Ktbr80xPUrdnZENitFPi5+1HgB0Xakx31NTsH632QZFGXug5k9kuM/bV7e8k7S78q3ossidQfcKnJ7T5KuE6/arhQ/VWUZuT0A43lWEwyNVl3S90Yu1Kyop3ZZ4Lhpk7oD0l9FjP7QOMHEVk36JRP+yjcoyiItqAVFGCZsL0WqxA2MUfnqRcxZnydJy9QVgXx1ahW5WVaKgGn4pogTO74X6z+KuxrwmuWZv78YoA/H2ERu72/MbOFnD30cqYndBGM10uMflOsBrrkGRSXMJuyKMNQUYZgOn5H5U2VsYFyk7oDiDtS3km5ipsu18XL93yI2ecm1BijeryGEVezrmF+vFkpbjOHc74vFEJ0ogU84Pmq81P0vnrK58f/ftNx3DIvI7fWSa1BUkrfyIgypO4LTRZiRGUMOebkx3/c3qVeIXrGO3N4ycnsAhvNriln5HQ/EbpRuxaiECe99m9gNRkjd3+3HfZnptBmhreIQFA3jQtLvZnbHTG55IszITJI/b7H2W33JsfKjB2kxiy6UNqgA0EgaEO34NWuZqPmLkvYVxZ6Ei5C6/yBpkeN3aS4Iiob1Qc1eo2I+9HPmMzKV8i6mkLNHNRs0P6m52I6VlrFV/BWZY9xHbItrC1CeTzkERDueSpeq+MI517DJXv98j/qYqfu/eVGPLNLPlelrmes5RcvUHTjDlaQ/zey3EALVPDLl5S0r5ZGCViSfRate/r1voFyouei9UfN5fqPTL/ZRziE6Q8yzLFiJBsrykOOhsyGEtR8CGvs7cHHG707u+hfh7KFnNannXd9Tsb9js3wtcw2KpuCzpxdlszEcDS+mUNLeoaJ4sLTRi0MFpZMDpqwnF0IIj2YWq7ksZ9cAHLRK3YEWa0lfI7fJNcz55Oy9xstU+S6pV1GPyN9j2SIoGteuCMMqhBAzxQav8AH5vcqoLDdJPQOmpZpA6VpSXcikwoPi7EkjzRMox6cMi8P8JYRQ+SRhzNWiLFcIXvEw5oOPPDm7lXSbU8pmKQiKxrcrwvBF0rqQAd7keJrAnRhUZqstYAKAwmyV+Sq3WyvuatGsCxpFmJx9UrM6FDOtezIotBDPB0mPFGGIy4sp3Ku56BMQYSybWA3leugdgL+pCpkEJYslEp+cfdR4AdHu7CECohMRFMV1qaYIwzp1R+bA83UfNd4GRmBnE7GtRcS2AJymhFWi3dlFo6aKvTS3o0v2Kt2ONTm7lfTfV84ewpEIitL4aGY1M77j8cPP/hDV5RDHrL7kAbR6ynkv0StirxbNJmPGs4MeJb0fqYnd2UOs+A0g16Bok7oDEbxVk053k7ojU2Jm12b2qPEOPwNeM5sveQCdShugkm41gr2zh8aanP2U2dlDxSMoSmtXhKGa23LyGPwCVIvqcoiPoAjATlFBUQihTt2HKfF0uVrS55GaeJb0nxzPvypdrkHR3LwXRRhOtldM4bMopoDIPBjnfQdAUnPmS+o+nOA5dQemwLN/Nhqvyt53SRRTGAlBUT4ownCCvQvQHIspbFN3YO58ImOduh8AshG1aMGANqk7UDrfy/y7xium8GsI4YZ0ufHkGhTN+QX/aGaPpNN1G/kCVAJmihLaS9ec6/sPwD9tUnfgRJvUHShVhL3MT5KWHMY6vlyDorkP9q6YCehlkboDmBdP1VyZ2UakawL4p03qDpxok7oDJfKzh2px9tAk/Ct1B/Cq76k7UIh7zTNtbmeTugNT5yu215KW/jPr09gBdGJCcxpas3X8u6HSeGOQraRVrFLbZCc1cg2KNqk7kFhRlWsSuldzGNpcbVJ3YAr2Ap+Xf16LlSAAx2FGfxoOrvz4wfCVxiu1/aAmINqM9PivodCXMg2KQggbM0vdjZQIinoIIfwwswfNd/aeGckOfkDywv936X/uAp+FONwXAEqxUeLvey+G9XHEJj7NpNR2luOXLIMi96x5Dli+s5/oKPeab1A0+xnJvaBnF+gs/SZWeQBgWjapGvbvmkrjjTee1awO1SM9fm6yHL/kHBRtNM+giFWi4+zOJ5qjTeoOxOTlr/d/5hoMAwAi8aM/Ko030fZdTUDEhHhiOQdFj5rnoIeg6Aieavmk8Sq/ZCtyvnF0HgTdiAIHAIDIPBhaarxS21tJ6xDC3UiPf4xl6g7kIOegaJO6Awk8MVNwkkrzWy16St2BoXnBg92X0I1IfwMA/LSJ3F6l8b6HntSsDmWZRhbBJnUHXpNzUDTHN0qVugOFmmMK3SZ1B4bis3E3kt6n7gsAIFubyO2NFRB9UbNCNNtJ8FwzXQiK8kLq3Ak8hW5uhTmK/nz4qtCtpJXm9boBAOYp6tlDR1qm7kAO/k/qDhziEfRz6n5E9JRr5FyIHC8yY6pTd+AUZvbGS5pu1JQ1JSACAPRR8mTgg6TrTAOi2LJN/882KHIlfwCOVaXuQOGq1B2IrKjPxivBEPuFAAC9FZxu9imEsMx84jvm4a3Zvo4ERfmoU3egZL5ZcS4ri88lfTn4nqFHEQwBAM5T0vf8s6RfCjmMNeZ3c7bjl9yDojp1ByJ5nnEFkiHNZVm6Tt2BPnx16F7S7yJNDgBwvk3qDvT0XU26XJ26I138+IuYsh3vZh0UlfBmGshcBvNjq1J3IJI6dQe6+EX2UdK71H0BAEzGJnUHevgthHBTUEbHm8jtZfu8ZB0UuYfUHYigSt2BKfDVtm3qfkRQp+5AGzNbqekjq0MAgCFtUnegxZOk/2RyGOsxlpHbY6XoDHXqDoyM1LlhTX3V7TnnzZoeEH3V/PYOzSEYB4DUch0vfZO0LHQ8t4jc3iZye72VEBRNfZA79X9fbFN/PrP99+0FRHPyIOkXSaXNDAJAiXJLvdpK+m8IYVVQutxLi5iN5Tyxm/PhrZKalCgz22q6M8916g5MSQjhnvdLfDMKiLZqXoNa0v3u4m5my2Q9AoCZCCHUZpa6GztPkm5yHuT39DZiW1lvick+KHL3kt6n7sQIthzkNQreLxF5UYWprpQ8qUnXeJRUF5oaAQBT8iTpKnEfPhVSartVgspzm8jtHYWgKK3sBrgTMdX3S526Ay+Z2Rs1z3fpK3Nb/Qx+NpIeZ1T9EgBKslG6oGirZnWoTtT+0JaR28t6YrGIoGjCKVEEReOoU3dgJDm+X9Yqp8rcLvDZ+M+jpB8T+nIDgDlIddzDd0kl7x16DWcU7SkiKHJTm/3PMhVqCkIIP8zsu6Z1Rs5WmQVFvo/mQ+p+vGIX/NTyAIjABwAmo5b0MXKbvxVYaruPZeT2CIoGMrWgqE7dgYm717SCovsMZ6fWqTuw50nNeV/s+wGAaYt9jX+eYkBkZgvFzfR4ynAc8zcllOSW1KTQSXpO3Y8BZTXrP0FTe36z+vf4KlHMijWveZb0SdK/QwjXIYQ7AiIAmDYfWD9FbPLSA4ipuYncXvbfz8UERS6rgeGZpvRvyY5fNL+n7sdAnjNMtVwnbPtZ0q8hhEUIYT2BcqhILEEFJgDniT3Ajh1AxLCM3F4dub2jlRYUTWX58nvuS4gTUafuwECq1B3Y5zNmKVaJtmryuhchhCpB+5iuN6k7AOAodeT2lpHbG5VXjo29xaCO3N7RigqKfEY464Ofespt1n+qpvI8V6k78EKKGbMnSddTzOtGFhapOwDgKHXk9t55IDEVsb/Hn0vI6igqKHJV6g4MoKjBupktzeyHma1T9+UY/gGMmXc8hm8ZXkhWkdt7krTM8HnAAQWmoy1SdwBAf4m+36eUQhf731JHbu8kxQVFnjZTcsGFh5JS58zsTtIfas6I+mhmdWEbDqvUHThTlboD+/y1j3lo3i4gKuYzA0nlpaMtU3cAwNHqyO3dRm5vFKTOHVZcUORKTqEpYpXIzK7N7FH/PIfmraRHMytlxqSI5/uAhwzP14m5ArAVAVGplqk7cKTSVrYAxB9oXxU2KXzIKkGbRYzFSg2KKjUDphJl/8Yws1s1F5tDKwIXkn43syr3HNvCU+iq1B14RczB49RODp+TReoO9OWpfhep+wHgOF6VNfZYcB25vTHEXvHK/nyinSKDIn9yS1wtesp5X4SZvTGze0mf1W+Q8F5SXcD+gTp1B07wnGmFtWWkdp4yLEPeZpG6A5lZpu7AEVapOwDgZLG/J25ynwxu42cMxjywVcpzgvdVRQZF7k7lrRZVqTtwiH9QHnV8numVpD99dSlXVeoOnGCdugMHLCK1U9qkxyJ1BzJzWcBkyU4pqcAA/il2UHShsvcWrRO0WcwEZ7FBUaGrRVm+Mbyq3B86b/bgsxdhyG4GJYTwqLKKc+S6SiTFm2HK8rPSIsW5TceqI7e3itze0XxvZOxZUwADSZRCd5vjWKeLT37H/q7KOkPqpWKDIlfSalF2NdrNbOHFFD4O9JBvJW0yLcJQ0iC75FmoIRSTfywVWXvO9V8AACAASURBVH46lhyvAy/N/bMGTAGrRf2sE7RZJWjzZEUHRYWtFmU1KDezlZp0uaHLK++KMOT2ulSpO9DTQ657aSIO/osJiNwqdQd6iv28Xvp1JkuJZk0BDK9K0ObHkirR+WR1iutdlaDNkxUdFElSCGGtMlKjqtQdkP4qplBJ+qpxKy59MLPHXGbRC0qhW6fuQItY6QKPkdoZSgkrIlKa53WdoM2+qtQdAHA+P7oixfd7laDNo3mqX4qJ6m8lZX1IEwiKXO7LmM8+KE/KA5RHNVXjYrhSU50ul9enTt2BDt8yPJcILRJV8jlVii+ny4w+/3/xfZSlvG4AuqUY9L/NeTV8z1pprndVgjbPMomgyNONHlL3o0XydCgfBPyp+B+MCzVFGO4z2JiY/HVosVXes+oxZbG62NM6dQf6Sjgxs84pzcQD2aH2UQLIQ6U0e8zvcrq+veRpcx8SNP1c4iTvJIIit0rdgRbJBuNeTKFW+kHAOzVFGJapOpCoSk1fd7kV4kC7QvekpDjI+EKZzBj6annOkyNTsUzdAcyLp2ml+GxfSMph0vcfPFirEjW/TtTuWSYTFPmA8lPqfrximypa9hmCR+UzcLuQ9IevWqWS44DoyffGZS3i+ziX9+tB/gVYpe7HCTaJ2n3rexmT2XvNxtxLicYidQcwS+tE7V4ps6Jffr27V5rr3VZ5jrU6TSYokrItuhD9jeHFFO4k/a48BwAfvQjDIkHbOX5Qs9tzkVqmZd33rVXmnpQ6YdvvUwVGe/sph662iddd5jhzjmnzyfFviZpPdn17yT97tdJd7+5KK7CwM6mgyK1Sd+CFqINw//KvlSaH9BhXkh5jb1LMsNz1l8LybmOlH2YbFPl7NvfP1yF14vajDxw8wK5VZhBbsmw/w5i0dcK2kwdGGQREW2W2anaMyQVFPsD8krofbhtzEO5Vnv5UObOhF5K+JijC8D1iW22eVF7ebazN+u9z3Lzqkw7FXvC92ELqfXXvzawe+zNfwIr51K1SdwDzk3i1SGqub0n2GPl3Zq20Y8BiV4mkCQZFbq00G4pfihIQ+Zd/LelzjPZG8E7NqlGsqmO5rBatCrx4bCK2lVXwsbcKW/oAu07dATX7xjZjleveO5y61BW9MWwit/c2ZWEdzNo6cfvv1BxHEq2S6t4e8pQBUdGrRNJEgyIfaK5S90MRBt/+pbNRAZvTO1xK+jNSEYYcgqJPOZxddYKYfX6XyxkQ3o9a5QdEUh7vf+lnuf7NEK+zTw6tzGyj5nBq0uX2JKpuWbG3CLH5ez11xtCVfEwz5mfAr3uV8lgRvy1wovdvJhkUSX+lifyWuBv1mA/uqSF/KP0HYUgfPbVmMVYD/qFNmUL3UEK1uQNiB3JfUwdGHqh/1XQ+Z7kERTuXal7nH2ZWmdlN30GEHzmwMrN7Sf9PBENdYhciulQzY05ghNjWSp8qLDXHoQy+f9qDobWaSfH3Qz72iZ5CCFXqTpzrX6k7MKYQwp2vpLxL0Pz3sSJmX5KtVM7eoWO9lV9ERtyTda8074utCt6AHEKozWyruAHCVzNT7AvuVD9nIYQfZvZdad7/bS7UfLm/lyQze5L0Q/+cXLqW9Mb/nEqgGstG8YPGv4rqFFZUBgXz69ytmomS1HYTP3dqvlOqUzNFPE1u95PT9W8SVXQnHRS5ldJsPBtlMO8f8rXy+jCM4ULS72b2TeMsydYDP15fN6UvL6t57mIPqL/6l8Ho+7B8lXKtPGbfxpJqUuAYu2t26anBOamV5vm8VHNG3ZOaQeHjoQDJV5V2ezEW/rP7u2oKs9GII4RQ+QpNLteQCzX7HD+Y2bOaz+PG//zbWYB7n4Pdn9dqDkXOcexXWhXdgyYfFPlswUrx9wMMGhTtHTyY+0BmaO8lXfss42CpWyGEjX9BxwyWf5vIhSPVgPqdms35dxqhwo2vKq807WBI0l+DhbVINdvZDVCm/trXatJ5UrmSFwQys1N+vx6yM5iFlZq079yCiUv9vN58lE7+TKT2rPSFLQYz2T1F+3wwvYrY5KCpcz5Ye9T8AqKd3YbFoZdnq4Efr823EELRVVn2pNyTcqHmC+T/ednT1an7zzwn+8bM7nxz/h+a/qB4X5W6AxnZpbVM2kQmZYDevOjCOnE3pqzEKroHTX6laCeEcG9mnxRnlqwe6oF8NjflzF5OPu/yaQf6EN4rThnzpxDCKkI7Ufjq6zelDyDe+Y88FWGjn5+9RzX7UXb2U3Ku1aTkTGqv0Anu1OSB5zaDGttWTUAUrXxuYjnuJwNGk3h/+ZR9mtpEy2yCIkkKIax9VnnswdzZM+nez3sxcHtpd77J2UUYIqXQPanJA56aO6UPivZd+k8uuePZ8+D2Tky63PlzkbofsZSwnwwY2krNZBkpw8MouYruQbNIn9vnM/YPIzbxdO55EHsHDxIQvW5XhGGIdLRqgMc4ZKuJLS3veErqmJ+j0mwVv9zxEO6UR9naVJ5V+GGDJ7jXvF9zzJB/D9+I9/4QnlVwFd02swuK3I2aGfwxVKf+4t4hXFM6E2VMH8zs8cxTo+uhOvPCVtKy0ANa+1qn7kBGblXgnhQfKEyilOqJij9s8Fj+783trCpgdAn2l0/RVtOoovuqWQZF/mIuNU5gdNKXjQ/sH5VXSlIJrtQcDnjSwM4vkmPM8N9MPCDabdr+lrofGSj60Drv+xxX/b6PeA5a7tapOwCk4J/5X1P3o2CDVgLOzSyDIulvgdGQS6knpc55MYU/Ra7rqS7UFGG4P/Hk9KEHRr9ObfNhi1uRjrBK3YEBrDSv13GrabxuJ/HvqS+p+wGk4BNBn1L3o0C/Tn0iabZBkTRKYFQfc2czW5hZLTY6D2V3js3yyN+rBuzDryWvGhzLP0Or1P1I6NMUZs18kLxK3I2YJpv+cYS15hUIA3/xIgFkOvQ3i7HNrIMi6a/0qaWG+XKo+t7RS0s/impZQ7tQc3L6uu8vDJhCN4uLxks+czTHWedJVd+Z0es4lUOUz8KEBubOC2/N4Zp3rtmMbWYfFEl/C4zOGRg/95kx3ium8LsopjCmj16EYdHz/ucuCc/movGaEMKt5rUvZZLVd/x1nPLs6ZQOUT6bB8JTfr2BVn7NY4/R67aa2diGoMh5QHOt04svdA6qvZhCLYopxHIl6dFLnHepT2xjdheNFmNWdczJpKvv+OzpFF/Hb1M6RHlAt5rm6w304t/f/xXppPt2FXSr1B2JiaBoz5lV6aq2G7062p/i7KHYLiR97SrC4DOmx14QZ3nROGTkqo65mEOpdal5Hae08kdAdMBMPrdAKx8DLFXmeXNDe5K0mMH33D8QFL2w9wVxzIDgYOqcp8vVkj6f3zuc4Z2aVaNly32OSaGby+D4KCd+fkrxrJm85iGEHyGEpaaRWvWFgKjd3v4iAiPM1l7G0PfUfUnoSwjheqqZEF0Iil5xwoCgfu0vvZjCRhRTyMWl2osw9A2KZjuL0sfe52dKG1ifJF3P7TX3YOK31P040S61dc6H0/a2t7eWwAiz5d9fN5pfOt2zpF/mfr0kKGrhA4I+tez/MZg2sztRTCFXH82sflmEoWcK3YOa1YJZzqIcwy+uU/himfXMmRcm+EVlpZU8idTWo+2t9E5hhRA4mY8HFprHqtEXNZN+deqOpEZQ1MFL7v6qwwO77f5hVmZ2bWaPkj5E6B5O91ZNOt3LCmJ1y+98CSEQEB1h74ulxEEWM2fOvyyvlf/q31bN2VGzW9Ubis+Ur9T+vQdM3t6q0S+a5grqg6T/hBBuGdc0CIp68NnGpV6fKd0PiG7VDKopplCGC0m/m1m1V4ThUAodaTgn2htk/aIy9hrtBtYLZs5+8tfxVtJ/lOfr+E3NbOc6dUemwL/3FipzQgMYTAihDiFcq5koKGnF/JAHNRN+s9gjewyCop72NuC9HAzcezGFezXFFEiXK897NatG1/pnUPSsZialit6rifEvlqXyDY62atJlFwysDwshPO69jjmklnyT9O8QwiqEsEndmSkpcEIDGE0IoQohLNQERyV+Hr7rZzBUp+5MjgiKjrC3gXx/n9EPNcUU3qXoEwZzqaZk+ko/B3rfNcPN9WPbC47+rSYdK3WKzpOaYgKLEMKaNIJ+/HW80c/XMeYM6u41+78EQ+N78Zn9pvSfWSAZD46WalbNc/88PKu5Pv87hHBDMNTOQgip+1AkL+1cqRlMY1q2kta+wRwR+N6upZoDYGN8pp7UpLpWQwW9XrhjMcRjdXjMNXDz1dbdazlk1c2tmterlnQ/RhDkr99q6Md9xWYKK8/+md291mN/Znev/90pgzr/vl4O2qPDqhKDdJ6j8+x9Hm6UPmPoWU3Wyz1B0HEIis7g+1AqsUo0Jc+SblgdSscHp9f+s1QTaJwz6NpKelQzqHqUVOcaVEyND7SuJb3RzwHXQodfzyc1q+8/1LxWGzVBIJ/HjHkw/PLn1IHhs5rXvd79ObUBNKbNPw/LvZ+xg6Rn/fyOq7leno6gaABeYGGt9LMDOM8XNStEDJgz5F80u4IYy5a7PqoZVItZMiCdI1dPs10BBc6x9zlYqvkOu/abjllN303uSU3ws5s44nMzIIKigfib/l5UnivRVtJqv7Q6AABATL66/oPVnjQIigZmZmtJH1P3A709qEmXY6YFAABgpqg+NzAv5Vva6e9ztJX0G4exAgAAgJWikXgRhjs1Z+AgL09q0uVYngYAAABB0di8TGMlijDk4ksI4TZ1JwAAAJAPgqIIvAhDpWHP7cBxntWsDtWpOwIAAIC8sKcoghDCxk8//i11X2bqu6RrAiIAAAC8hpWiyPyslUqU7o5hK+l2CqfHAwAAYDysFEXmm/uXag4KxXge1KwOVak7AgAAgLyxUpSQH9J1L4owDO2Tl0YHAAAAOhEUJealuytJ7xJ3ZQqe1RzESqltAAAA9Eb6XGIhhB8hhBs1RRi2qftTsC9q0uUIiAAAAHAUVooy4qW770URhmNs1ZTavk/dEQAAAJSJlaKMeOnua0mfUvelEA+SFgREAAAAOAdBUYa8SMAvavbI4J+2kn4LISxDCD9SdwYAAABlI30uY16E4U7S+9R9yciTmnQ59g4BAABgEARFBTCzGzUV6uZeuvtLCOE2dScAAAAwLQRFhfAiDJWkt0k7ksazmtWhOnVHAAAAMD3sKSqEF2FYqindPSff1ZTarlN3BAAAANPESlGBzOxazarRlEt3byXdhhCq1B0BAADAtLFSVCAvMrBUc2DpFD2oWR2qUncEAAAA08dKUeHMbKnmwNepFGH45CXJAQAAgCgIiibAS3dXkt4l7so5niXdUGobAAAAsZE+NwEhhB8hhBs1RRi2qftzgi9q0uUIiAAAABAdK0UT46W771VGEYatmlLb96k7AgAAgPlipWhivHT3taRPqfvS4UHSgoAIAAAAqREUTZQXK/hFzV6dnGwl/RZCWIYQfqTuDAAAAED63MR5EYY7Se9T90XSk5p0OfYOAQAAIBsERTNhZjdqKtSlKt39JYRwm6htAAAA4CCCohnxIgyVpLcRm31WszpUR2wTAAAA6I09RTPiRRiWakp3x/BdTantOlJ7AAAAwNFYKZopM7tWs2o0RunuraTbEEI1wmMDAAAAg2KlaKa82MFSzcGpQ3pQszpUDfy4AAAAwChYKYLMbKnmwNdzizB88lLgAAAAQDEIiiDpr9LdlaR3J/z6s6QbSm0DAACgRKTPQZIUQvgRQrhRU4Rhe8SvflGTLkdABAAAgCKxUoR/8NLd92ovwrBVU2r7PkafAAAAgLGwUoR/8NLd15I+HbjLg6QFAREAAACmgKAIB3nRhF/U7BmSmtWh30IIyxDCj2QdAwAAAAZE+hw6eRGGW0n37B0CAADA1BAUAQAAAJg10ucAAAAAzBpBEQAAAIBZIygCAAAAMGsERQAAAABmjaAIAAAAwKwRFAEAAACYNYIiAAAAALNGUAQAAABg1giKAAAAAMwaQREAAACAWSMoAgAAADBrBEUAAAAAZo2gCAAAAMCsERQBAAAAmDWCIgAAAACzRlAEAAAAYNb+lboDAAAAKJ+ZLff+d+F/bnZ/EUKo4/UGOI6FEFL3AQAAYDeoXh64uWZQnQ8zeyPpRs3rtZR02fNXnyXV/nMfQvgxfO9+4j2FvlgpAgAAuVhK+thyex2nGzjEg4xbSe9OfIhLSe/956uZfZd0N2JwshTvKfTAniIAAAC0MrOlmW0k/aHTA6LXvJP0h5nVL9LvgKgIigAAAPAqM1uY2b2aYKhvitwp3qoJju49NQ+IiqAIAAAA/2BmN5IeNezKUJd3kjZzXDXy1bhw4Gedun9TR1AEAACAvzGzW0m/S7pI0PyFmlWjVYK2MVMUWgAAAMBfzKxSUwjhGE9qihZs1Kwu7btWU6J7KenqiMf8amYKIVRH9gU4GkERAAAAJP21QtQ3IHqWtFZ3ae167/EXklb+02ePEoERoiB9DgAAALs9RJ973HUr6dcQwiKEUB1z1lAIYRNCWIcQFpI++WN1+Wpm133bAE5BUAQAADBzvoJT9bjrg6TFECs3IYS1mtS6px53pyodRkVQBAAAgErdRRW+hRCWx6wMdQkhbNTsNeoKjC7VpOoBoyAoAgAAmDGv8va2427fQgirMdr3IGup7sDowxxLdSMOgiIAAIB5W3fc/iTpdswO7AVGXXuM1mP2A/NFUAQAADBTvkrUVQVuNWTK3CHexqrjbm8puoAxUJIbAAAUywf1S/95bXD/oKYkdOX7V4557GXLzZtjH6+lnYWac3xe8yOE8PLcnyF1rQB9Gbn9vwkh3JvZg9rT+W7VHTxF4cUfuoK0v17DjvdU2+Ms+qQOhhDqrvu8xgPNGzWfo4UOB8rPas6hqtWUYt+c0l6OCIoAAEBxPBhaq3uV463/fDSzb5LWRwzkqpbHf1AzgBzCnaR3B277opFS1zwY6zpMdT1G2x1uJf3ZcvtNrI608YCoVvtzuFUTwO0Cyz9ObO69+p0fZcc86BGfo51L/3kn6bMHsOtTg7GckD4HAACKYWZvzKyW9FX9B3I77yU9+kCwj6rltrceVJzFB9aHAqKuPpyrK7j4FiNt7iVfVXloucuFn6mUzBEB0TKEcB+lU0cws6WZbXTa52jfW0l/mFlVesl0giIAAFCEvYFoV6W0NhdqDgNd9bjvndo3/q/P6MdO2+D+eeTUta7Aohqx7S5dbS8j9OFVRwZE0VIP+zKzOzUrVucEQy+9l1SXHBgRFAEAgFLcqzvdq6/OwMhXSdpm+W8GGAS2BSZjrzC0BZfbxClRXf/2ZYxOvDSBgKiS9GGkh79S2kD6LARFAACgBLc6PIjfqkm32v10lXXe+dqjktm65bYLnb+/ZdlyW3XmYx/UY9N+PVbbfXhA2nZu0VDBcW89A6InSdeZBkS36rcvSWoKKjzo+M/Vu9Spjaei0AIAACjBxSt/903S3WsDUA92+gwCK7VU/QohbMzsuw7v+7nVicGLDx5f+3dJ46fOLTpuz2FQX6slADGzZazVrCMComXHPqxPLbctdPj9uquieBLf//a5425bNe/lu0PFSDyYXqt9lfFO469yDo6gCAAAlGYr6aZtQOwBxcr3T9zr8P6JKzNbhRCqlvbaqsNdnTE4T5k6t+i4vR65/T42qTsgDRoQKYSwbmlnqcNBUd32uz3cddz+pOYztWm7k7/Pl56Gd6ivl2aW5WpZG9LnAABASXb7Neo+d/aB2VJnFEzwttpSuVZ9+vKKtqCoaxB7rkXH7dGrzr2ia1C9HLsDvuL4qAEColR8laitwuGu/5u+jxlCWKm9QmBxKXQERQAAoCQ3x85A+2Bv1XKXyx57i9qClPfHFlzoSJ17inAo5qLtxtJm+cfg74la7VXavoUQrnMNiNyy4/bVif1v+0x0tZkdgiIAAFCK76fuIfGzYtpmtlcdv1+p2Xx+yLEHrLbNpFdHPhYGthcQHQpcpSYgWkXp0Bn8vftvSb/pnyue384IgOszupUdgiIAAFCKc1PKqpbb+qT7tLW/OqonafcTocWUAqKdEMImhHAXQrjW3wOkkz9THatLi1MfNxWCIgAAUILnASqNtQUblz1S4Cod3pt02bcUcQapczigZ0D0qaSA6KX9AGnENMkhD4aNgqAIAACU4OzVkx5n37TuK/Lfr1rusurZlexT5wY4lLY4PQOiX8+sAlcUM3tjZkszW5vZnZnVZrYxs2BmIXX/hkRJbgAAUIKhZrTbKokt1b1P4k7ShwO3vTOzRY+VnhxS52q1nzWzCxBS6grMNkM1dERAVA3VZq58JfNGzXsg+iG5qbBSBAAASrDJ4XE84PnWcpfWggsdqXMPGaXOLVJ3QB0rdxroPXHEHqJqiPZy5KtBlZn9kPS7mjOIZhMQSQRFAACgDDFKHvdNGatablt1/G4uqXN1x+1dAUkMowdFPQMiqSm7XtzZO108GKol/aEmEOp6HiaLoAgAAGQv0rk5vQIBL/hwqLz3hZmtWn49h9Q5qTugWEboQ5dly23bAVbV+gZEO1WP86yK4HuF7tUEQ21plLNBUAQAAHC8quW21Wt/2ZE69z3mAaAeULSdu3RlZosonXmFmS3VHqzUAzTzrqONly4k3ZdehMIDu0c1//6+HiR9UVPK+xdJ/zeEYCN0LxmCIgAAkL1IA9HeQUnHYa5vD6wo5LJKtFN33J4yXWzVcXsdoQ+vuVTB50jtpQt2lczeqtk7998QgoUQliGEWy/lXccM4GMhKAIAACWIkbZ0bIpe28GXrxVcyC0o6mqztWjEWDwA7grIxnq+niT9R4fPo5KaoLcaqf3R+PNaqX11bCvpk6RFCGEVQig2ADwWQREAAMBpKh0ePL/fX93KKXVuxwe8bYP/y479UWO5VfvAfawDbp8kLX3/WldQ9j7Rc3OOW7VXlHtQEwytp7gS1IWgCAAAlGAZ4XE2xzyQDxz7rhbltkq0U3Xcvo65h8b3MXWtULU956faBUQ/pL+KafzW8TtfSym84K9h2/P63VPkZhcM7RAUAQCAEgw1+Gx7nM0Jj1e13Lba++9DQdE28fk3XQHGpaR1hH7sVGpfJXoe4fl60F5AtBNCuFP7mVSSVKcsSHGEpQ4/r1t17+H6h0L+3b0RFAEAgBK8O3fFwmf1Dw64fXXgKB2HuV6a2U1H6lzSPRs9DqOVpA8xUsXMbK3u8tDrgZv91rFCcqtmFemQUirSLVtuq05cISpilawvgiIAAFCKc6uhrVpuO3TuUB9tqy0r5Zs6t3Or9r1FUpMqthqrA/7YHzvuNvQq0fcQwqrtDh4s3Kj9+blS3IN3T9EWwNQnPuakDrMlKAIAAKU4eX+L/96q5S4nBye+Mf9QUPVO7alzyYMiH/j3qTQ3SmDkK0Rfe9x16LZ7VRv01bSuAOCd/ztKdPQqkafOvR+8JwkRFAEAgFKcs7/lTu17Vc4NTtpWi7JMndvnKzDfe9z1q5kNki5mZgszq9W9QiRJn05JbxxKz8ILH0dcTVuO9LjSaWlwYxS7SIqgCAAAlOTo/S1+/7ZZ7W/nlnj2FZ9Dh7kekk1Q5FZq3z+z807SxsxOWrnzYGitZqWmaw+RJD2EENbHtjO0noUX7kaqSHd9ZiC6abntqPOozOxWzXtgUgiKAABAab6aWdU1SDSzN2Z2p+7UrPVA/TrmcbJIndvnaXRL9QuMLtSs8Pw/XzlatQUDZrY0s1szu5f0P//dtpW7nSfltXdltMILHSthF2oq3d34c9n281rbbamCl30Oo/XPUyXpc9d9/f5JDv89lYUQUvcBAABgt7ekTyrVzlbNBvda0mMIYeN7HRZqBtIrdQ+8v4QQBhm8+WB006PNQdsdmv87arUf9NnlQdKbMx/jb2cHnaLjPfXplBUof489qvuA2aNXjMzsUec9Z5L0y8sAy/v8v47fe5B09zJY92B393m6PLNvJz3nMbBSBAAASvDafpcLSR8k/S7pf2YW1Az8/vC/7wpOnjRgieceh7nuq4Zqd2h7K0bnVOR7q/MG9990ZkA0Fk+1XHbc7arP6ssrTvmdTt7nrtfzraTfzSz4z8Y/U3+qCSxfC4h+Hban6RAUAQCAEvTZz3GMraTVCIPuqsd9nr1iXbZCCD9CCEtJnyI3vZX0WwhhjNdmMP76dQUE709IIat0/N60vlbqLr2+r2tV6IsX6OiTbpk9giIAAFAEP1NmiMBoq2YVYvDApOdhqFntJWrjqU7/1nmrRn19k3TtBQ2y5wFB12v92cyWRzxmn3ORTuLvzaFSNr/tpX+uB3rMpAiKAABAMTww+k2nDxofJC1GXqlZd9xejdj24EIIG181+kX9ynYf65uafTCrc6sAxubvx66VkvtjKtL5e/NaIwSiHsj9V6d/fraSft0/9Nb3IMVeURwchRYAAEAWvHT26sDNt/uBjG8cX6uZVe9T2OBB0jrWWTe+F+M1zyGERYw+jMWf+xv/6VNS+zUPalbM7scMhDreU5UHCee28Ubdq3+PpxTW8GBq6T99K9rddgX93udb/+nz+dmq+TeuD71e/r5YqX2/1SDP+RgIigAAQNHM7EbNzPryxU0bNVXCRh14H+jP7wduzrbq3Kk8PexazaB9eeButaQfaoKDOka/0I+/fkv9fA331Wo+Q3XOe7yGQFAEAAAwIK86duiw2P/kXmQBmCOCIgAAgAGZ2Q+9npJ00tk1AMZHoQUAAICB+B6WQ3s0qng9AXAMgiIAAIDh3LTcVkwpbmBuCIoAAAAG4BvW3x24+am0ctPAnBAUAQAAnMkDoraVoCIOJAXmikILAAAAB/g5MV0BzULSZcvtWzUHxk66pDFQsn+l7gAAAEDG3uj0A0p37giIgLyRPgcAADCepxDCOnUnALQjKAIAABjHVtIqdScAdCMoAgAAGN6zpGUI4TF1RwB0IygCAAAYzrOkT5KuCYiA6cZyCAAAAS5JREFUclB9DgAA4AAzW6g7BW6z++EsIqBMBEUAAAAAZo30OQAAAACzRlAEAAAAYNYIigAAAADMGkERAAAAgFkjKAIAAAAwawRFAAAAAGaNoAgAAADArBEUAQAAAJg1giIAAAAAs0ZQBAAAAGDWCIoAAAAAzBpBEQAAAIBZIygCAAAAMGsERQAAAABmjaAIAAAAwKwRFAEAAACYNYIiAAAAALNGUAQAAABg1giKAAAAAMwaQREAAACAWSMoAgAAADBrBEUAAAAAZo2gCAAAAMCsERQBAAAAmDWCIgAAAACzRlAEAAAAYNYIigAAAADMGkERAAAAgFkjKAIAAAAwawRFAAAAAGaNoAgAAADArBEUAQAAAJg1giIAAAAAs0ZQBAAAAGDWCIoAAAAAzNr/BxfQG0ONO+Z9AAAAAElFTkSuQmCC;imageBorder=none;" parent="1" vertex="1">
          <mxGeometry x="611.4100000000001" y="239" width="147.19" height="67" as="geometry" />
        </mxCell>
        <mxCell id="EfqctRZrHFUYg00bFSVy-14" value="" style="rounded=0;whiteSpace=wrap;html=1;fillColor=none;" parent="1" vertex="1">
          <mxGeometry x="585" y="382.5" width="200" height="250" as="geometry" />
        </mxCell>
        <mxCell id="Un4krBqXsEn8p7unEbFb-5" value="" style="edgeStyle=orthogonalEdgeStyle;rounded=0;orthogonalLoop=1;jettySize=auto;html=1;" edge="1" parent="1" source="EfqctRZrHFUYg00bFSVy-16" target="8CVGfBuRibGCuJ_y4K7t-1">
          <mxGeometry relative="1" as="geometry" />
        </mxCell>
        <mxCell id="EfqctRZrHFUYg00bFSVy-16" value="" style="rounded=0;whiteSpace=wrap;html=1;fillColor=none;" parent="1" vertex="1">
          <mxGeometry x="-20" y="380" width="200" height="247.5" as="geometry" />
        </mxCell>
        <mxCell id="EfqctRZrHFUYg00bFSVy-21" value="Saas - Auth0" style="text;html=1;align=left;verticalAlign=middle;whiteSpace=wrap;rounded=0;" parent="1" vertex="1">
          <mxGeometry x="592.4100000000001" y="172.5" width="110" height="30" as="geometry" />
        </mxCell>
        <mxCell id="EfqctRZrHFUYg00bFSVy-22" value="Saas - Github" style="text;html=1;align=left;verticalAlign=middle;whiteSpace=wrap;rounded=0;" parent="1" vertex="1">
          <mxGeometry x="592.4100000000001" y="387.5" width="110" height="30" as="geometry" />
        </mxCell>
      </root>
    </mxGraphModel>
  </diagram>
</mxfile>
